<?xml version="1.0" standalone="no"?>
<!DOCTYPE svg PUBLIC "-//W3C//DTD SVG 20010904//EN"
 "http://www.w3.org/TR/2001/REC-SVG-20010904/DTD/svg10.dtd">
<svg version="1.0" xmlns="http://www.w3.org/2000/svg"
 width="512.000000pt" height="512.000000pt" viewBox="0 0 512.000000 512.000000"
 preserveAspectRatio="xMidYMid meet">
<metadata>
Created by potrace 1.16, written by Peter Selinger 2001-2019
</metadata>
<g transform="translate(0.000000,512.000000) scale(0.100000,-0.100000)"
fill="#000000" stroke="none">
<path d="M988 4804 c-346 -173 -628 -316 -628 -319 0 -3 287 -148 638 -324
l637 -319 638 319 c350 176 637 321 637 324 0 9 -1260 635 -1277 634 -10 0
-300 -142 -645 -315z m719 -209 c59 -18 113 -71 113 -112 0 -37 -65 -98 -120
-113 -110 -30 -250 30 -250 107 0 37 21 72 57 94 66 41 121 48 200 24z"/>
<path d="M260 3512 l0 -849 636 -312 c500 -244 639 -309 650 -300 12 10 14
148 14 835 l0 824 -650 325 -650 325 0 -848z m248 544 c124 -64 162 -300 57
-348 -80 -36 -195 98 -195 227 0 106 62 160 138 121z m397 -640 c87 -37 152
-177 126 -271 -35 -127 -165 -108 -228 33 -50 113 -19 233 65 251 1 1 18 -6
37 -13z m415 -751 c91 -47 142 -225 87 -306 -31 -47 -64 -56 -111 -34 -48 23
-88 77 -110 150 -44 137 32 243 134 190z"/>
<path d="M2358 4034 l-648 -324 0 -747 0 -748 70 70 c70 70 70 71 59 103 -39
113 58 292 157 292 31 0 73 -35 87 -72 3 -8 162 143 388 368 l384 382 73 -25
c40 -14 75 -23 78 -21 2 3 3 239 2 525 l-3 521 -647 -324z m511 20 c76 -53 63
-209 -24 -300 -67 -71 -130 -68 -167 6 -38 75 -8 197 66 268 49 46 85 54 125
26z m-821 -416 c45 -49 53 -112 25 -199 -20 -62 -83 -134 -127 -145 -90 -22
-144 103 -97 225 45 120 143 178 199 119z m460 -278 c58 -86 -4 -274 -105
-316 -40 -17 -74 -5 -105 37 -60 80 -5 259 93 307 51 25 86 17 117 -28z"/>
<path d="M3060 3147 c0 -7 100 -312 222 -679 l223 -668 674 -225 c371 -123
677 -222 680 -219 3 3 -95 308 -219 678 l-224 672 -678 226 c-390 130 -678
221 -678 215z m983 -754 c92 -67 133 -192 79 -245 -34 -35 -104 -32 -167 7
-69 42 -107 100 -113 169 -4 49 -2 57 23 81 24 25 32 27 81 23 40 -3 66 -13
97 -35z"/>
<path d="M2292 2537 l-593 -593 233 -682 c128 -375 238 -682 243 -682 6 0 274
264 598 588 l587 587 -228 684 c-126 377 -232 686 -238 688 -5 2 -276 -264
-602 -590z m534 190 c76 -66 13 -267 -101 -321 -167 -80 -183 220 -17 321 47
29 84 29 118 0z m-403 -1407 c71 -56 45 -205 -51 -292 -151 -137 -253 69 -118
239 57 70 121 91 169 53z"/>
<path d="M2871 1056 l-593 -593 88 -30 c49 -17 353 -121 676 -232 323 -110
593 -201 600 -201 14 0 1205 1187 1198 1193 -5 5 -1362 457 -1370 457 -3 0
-272 -267 -599 -594z m761 355 c34 -38 35 -62 4 -116 -38 -64 -146 -125 -222
-125 -38 0 -94 30 -106 56 -42 93 112 230 246 220 41 -3 55 -9 78 -35z m425
-140 c86 -53 20 -186 -117 -235 -112 -40 -208 1 -197 85 16 117 213 211 314
150z m448 -151 c63 -59 7 -170 -112 -221 -114 -49 -213 -16 -213 69 0 124 237
234 325 152z m-1620 -394 c18 -8 41 -26 51 -41 38 -59 -34 -162 -142 -203 -65
-26 -102 -27 -149 -8 -113 48 -41 202 118 252 55 17 81 17 122 0z m454 -161
c16 -8 34 -27 40 -44 11 -25 10 -36 -7 -74 -34 -78 -131 -135 -229 -136 -42
-1 -57 4 -83 26 -29 24 -32 31 -27 69 6 58 47 107 120 144 68 34 139 40 186
15z m431 -140 c107 -55 32 -205 -126 -251 -97 -28 -176 7 -176 79 0 113 198
226 302 172z"/>
</g>
</svg>
