<?xml version="1.0" standalone="no"?>
<!DOCTYPE svg PUBLIC "-//W3C//DTD SVG 20010904//EN"
 "http://www.w3.org/TR/2001/REC-SVG-20010904/DTD/svg10.dtd">
<svg version="1.0" xmlns="http://www.w3.org/2000/svg"
 width="250.000000pt" height="250.000000pt" viewBox="0 0 250.000000 250.000000"
 preserveAspectRatio="xMidYMid meet">
<metadata>
Created by potrace 1.16, written by Peter Selinger 2001-2019
</metadata>
<g transform="translate(0.000000,250.000000) scale(0.100000,-0.100000)"
fill="#000000" stroke="none">
<path d="M1205 2486 c-16 -8 -259 -147 -540 -309 l-510 -295 0 -632 0 -632
535 -310 c486 -280 538 -309 572 -305 21 3 89 36 163 78 69 41 143 83 163 95
20 11 109 62 197 113 88 51 180 104 205 118 25 14 61 35 80 47 37 22 62 36
182 104 42 24 81 49 87 56 8 9 10 197 9 641 l-3 627 -535 309 c-294 170 -544
309 -555 309 -11 -1 -33 -7 -50 -14z m-402 -711 l97 -58 -2 -485 -3 -486 -118
-73 -118 -73 -74 50 -75 51 0 530 0 530 77 49 c69 44 79 48 98 36 11 -7 64
-39 118 -71z m1125 32 l62 -39 0 -534 0 -533 -75 -51 -74 -50 -118 73 -118 73
0 484 0 484 120 72 c66 40 124 70 130 66 5 -3 38 -23 73 -45z m-793 -217 c62
-33 117 -60 122 -60 5 0 59 27 119 60 60 33 112 60 117 60 4 0 7 -141 7 -312
l0 -313 -122 -64 -121 -64 -128 64 -129 63 0 313 c0 225 3 313 11 313 6 0 62
-27 124 -60z"/>
</g>
</svg>
