<?xml version="1.0" standalone="no"?>
<!DOCTYPE svg PUBLIC "-//W3C//DTD SVG 20010904//EN"
 "http://www.w3.org/TR/2001/REC-SVG-20010904/DTD/svg10.dtd">
<svg version="1.0" xmlns="http://www.w3.org/2000/svg"
 width="745.000000pt" height="412.000000pt" viewBox="0 0 745.000000 412.000000"
 preserveAspectRatio="xMidYMid meet">
<metadata>
Created by potrace 1.16, written by Peter Selinger 2001-2019
</metadata>
<g transform="translate(0.000000,412.000000) scale(0.100000,-0.100000)"
fill="#000000" stroke="none">
<path d="M2206 3059 l-26 -31 0 -977 0 -978 21 -19 c21 -18 62 -19 1523 -22
1424 -2 1504 -1 1519 15 14 16 16 102 17 808 1 435 1 877 1 983 l-1 194 -29
29 -29 29 -1485 0 -1485 0 -26 -31z m2884 -1009 l0 -870 -1375 0 -1375 0 0
863 c0 475 3 867 7 870 3 4 622 7 1375 7 l1368 0 0 -870z"/>
<path d="M3275 2766 c-41 -18 -83 -69 -90 -109 -3 -18 -5 -203 -3 -412 3 -380
3 -380 26 -413 41 -56 60 -61 264 -63 116 -1 193 3 205 10 11 5 34 26 52 46
l31 36 0 233 c0 187 -3 236 -14 245 -9 8 -59 11 -152 9 l-139 -3 0 -100 0
-100 43 -3 42 -3 0 -80 0 -79 -47 0 c-27 0 -59 -3 -72 -7 l-23 -6 5 299 6 299
65 3 65 3 3 -63 3 -63 105 0 105 0 3 116 c2 106 1 118 -20 150 -42 61 -71 69
-263 69 -119 -1 -179 -5 -200 -14z"/>
<path d="M3871 2766 c-8 -9 -10 -149 -9 -502 l3 -489 105 0 105 0 -2 220 c-2
131 1 214 6 205 5 -8 30 -97 55 -197 63 -248 57 -235 108 -231 l43 3 28 115
c15 63 34 138 41 165 8 28 20 73 28 100 12 47 13 38 18 -165 l5 -215 100 0
100 0 0 500 0 500 -116 3 c-85 2 -119 -1 -126 -10 -10 -13 -93 -334 -93 -361
0 -7 -9 -31 -19 -53 l-19 -39 -7 30 c-4 17 -23 93 -42 170 -18 77 -39 163 -45
190 -7 28 -16 56 -21 63 -14 18 -230 17 -246 -2z"/>
<path d="M4723 2768 c-4 -7 -7 -233 -5 -503 l3 -490 92 -7 c50 -3 100 -4 110
-1 16 4 17 35 15 506 l-3 502 -102 3 c-74 2 -104 -1 -110 -10z"/>
<path d="M2507 2763 c-4 -3 -7 -221 -7 -483 0 -373 3 -480 13 -494 12 -16 33
-17 243 -14 254 3 264 6 305 71 18 29 19 47 17 204 -3 160 -5 173 -25 202
l-23 30 25 37 c24 35 25 44 25 178 0 167 -9 204 -56 245 l-35 31 -238 0 c-131
0 -241 -3 -244 -7z m351 -288 l0 -95 -69 0 -69 0 0 88 c0 49 3 92 7 95 3 4 34
7 68 7 l63 0 0 -95z m2 -395 l0 -100 -70 0 -70 0 0 93 c0 52 3 97 7 100 3 4
35 7 70 7 l63 0 0 -100z"/>
<path d="M2504 1687 c-2 -7 -3 -89 -2 -182 l3 -170 1215 0 1215 0 0 180 0 180
-1213 3 c-983 2 -1214 0 -1218 -11z m1604 -99 c7 -7 12 -40 12 -79 0 -76 -11
-92 -62 -87 l-33 3 -3 73 c-2 46 2 79 9 88 14 17 61 18 77 2z"/>
</g>
</svg>
