<?xml version="1.0" standalone="no"?>
<!DOCTYPE svg PUBLIC "-//W3C//DTD SVG 20010904//EN"
 "http://www.w3.org/TR/2001/REC-SVG-20010904/DTD/svg10.dtd">
<svg version="1.0" xmlns="http://www.w3.org/2000/svg"
 width="745.000000pt" height="412.000000pt" viewBox="0 0 745.000000 412.000000"
 preserveAspectRatio="xMidYMid meet">

<g transform="translate(0.000000,412.000000) scale(0.100000,-0.100000)"
fill="#000000" stroke="none">
<path d="M2211 3054 c-21 -27 -21 -28 -19 -1008 l3 -980 25 -13 c20 -10 333
-13 1511 -13 1427 0 1487 1 1502 18 16 17 17 100 17 986 0 1027 1 1012 -45
1030 -9 3 -682 6 -1495 6 l-1479 0 -20 -26z m2884 -1004 l0 -875 -1380 0
-1380 0 -3 865 c-1 476 0 871 3 878 3 10 285 12 1382 10 l1378 -3 0 -875z"/>
<path d="M3273 2751 c-30 -14 -48 -31 -63 -61 -20 -40 -21 -51 -18 -428 3
-359 4 -389 22 -418 34 -56 66 -64 264 -64 272 0 272 0 272 323 0 171 -3 217
-14 226 -9 8 -56 11 -142 9 l-129 -3 0 -90 0 -90 40 -5 40 -5 0 -85 0 -85 -70
-6 c-38 -4 -74 -3 -78 1 -4 4 -7 142 -5 306 l3 299 75 0 75 0 5 -60 5 -60 95
0 95 0 3 102 c3 127 -14 171 -78 197 -63 25 -339 23 -397 -3z"/>
<path d="M3882 2762 c-10 -7 -12 -112 -10 -493 l3 -484 95 0 95 0 0 215 c0
234 0 239 14 224 11 -10 26 -61 77 -264 45 -179 47 -182 86 -178 l32 3 34 135
c19 74 40 162 48 195 18 75 34 115 45 115 5 0 10 -100 11 -222 l3 -223 90 0
90 0 0 490 0 490 -104 3 c-62 2 -108 -1 -116 -8 -7 -6 -31 -90 -54 -188 -23
-97 -49 -192 -57 -210 -7 -18 -14 -42 -14 -52 0 -36 -17 -21 -32 28 -8 26 -35
128 -58 227 -24 99 -48 186 -53 193 -11 14 -203 17 -225 4z"/>
<path d="M4733 2758 c-4 -7 -7 -229 -5 -493 l3 -480 92 -6 c51 -4 95 -4 100 0
4 4 6 227 5 497 l-3 489 -92 3 c-66 2 -94 -1 -100 -10z"/>
<path d="M2517 2753 c-4 -3 -7 -219 -7 -478 0 -399 2 -474 14 -484 11 -9 74
-12 233 -9 183 2 223 6 249 20 51 28 64 76 64 241 0 134 -2 147 -26 195 l-25
51 23 31 c21 29 23 44 26 164 4 155 -7 207 -50 248 l-30 28 -232 0 c-128 0
-236 -3 -239 -7z m348 -278 l0 -100 -75 0 -75 0 -3 89 c-2 49 0 96 2 103 4 10
24 13 78 11 l73 -3 0 -100z m0 -395 l0 -105 -75 0 -75 0 -3 94 c-1 52 0 101 2
108 4 10 24 13 78 11 l73 -3 0 -105z"/>
<path d="M2514 1677 c-2 -7 -3 -85 -2 -172 l3 -160 1205 0 1205 0 0 170 0 170
-1203 3 c-977 2 -1204 0 -1208 -11z m664 -95 c4 -29 12 -28 37 5 32 39 48 21
23 -25 l-21 -37 21 -45 c11 -25 18 -48 16 -52 -10 -16 -35 -7 -46 17 -15 33
-26 32 -30 -2 -2 -20 -9 -28 -23 -28 -18 0 -20 8 -23 84 -2 46 0 91 3 98 8 22
40 11 43 -15z m244 11 c23 -20 24 -80 2 -105 -13 -14 -14 -21 -5 -32 13 -16 7
-36 -10 -36 -5 0 -14 11 -19 25 -12 32 -18 31 -30 -1 -19 -48 -35 -22 -38 61
-2 43 -1 84 2 92 8 19 76 16 98 -4z m163 5 c38 -124 46 -161 36 -171 -7 -7
-16 -6 -29 6 -23 21 -41 21 -63 1 -10 -9 -22 -13 -27 -10 -11 7 -6 32 34 174
2 6 13 12 24 12 11 0 22 -6 25 -12z m210 -8 c0 -9 -12 -17 -29 -20 -38 -7 -44
-27 -12 -40 33 -12 33 -28 2 -40 -18 -7 -26 -18 -28 -42 -2 -21 -8 -33 -18
-33 -12 0 -16 17 -18 84 -2 46 0 91 2 98 8 20 101 14 101 -7z m171 9 c4 -7 -3
-19 -14 -28 -17 -13 -22 -29 -24 -86 -3 -62 -5 -70 -23 -70 -18 0 -20 8 -23
70 -2 57 -7 73 -24 86 -31 24 -13 39 47 39 30 0 57 -5 61 -11z m146 -6 c25
-22 26 -138 1 -165 -18 -20 -73 -24 -91 -6 -16 16 -16 160 0 176 17 17 68 15
90 -5z m119 -13 c14 -37 27 -39 31 -2 2 16 9 27 18 27 12 0 15 -17 15 -95 0
-88 -2 -95 -20 -95 -13 0 -22 10 -29 33 -5 17 -12 32 -17 32 -4 0 -9 -15 -11
-32 -2 -21 -8 -33 -18 -33 -12 0 -16 17 -18 84 -2 46 -1 90 2 98 9 23 37 14
47 -17z"/>
<path d="M3364 1556 c-8 -22 3 -49 19 -43 6 2 12 14 12 27 0 27 -22 39 -31 16z"/>
<path d="M3550 1506 c0 -17 14 -29 23 -20 8 8 -3 34 -14 34 -5 0 -9 -6 -9 -14z"/>
<path d="M4054 1557 c-11 -29 0 -102 16 -102 19 0 22 106 3 112 -7 3 -16 -2
-19 -10z"/>
</g>
</svg>
