<?xml version="1.0" standalone="no"?>
<!DOCTYPE svg PUBLIC "-//W3C//DTD SVG 20010904//EN"
 "http://www.w3.org/TR/2001/REC-SVG-20010904/DTD/svg10.dtd">
<svg version="1.0" xmlns="http://www.w3.org/2000/svg"
 width="222.000000pt" height="86.000000pt" viewBox="0 0 222.000000 86.000000"
 preserveAspectRatio="xMidYMid meet">
<metadata>
Created by potrace 1.16, written by Peter Selinger 2001-2019
</metadata>
<g transform="translate(0.000000,86.000000) scale(0.100000,-0.100000)"
fill="#000000" stroke="none">
<path d="M1448 663 c-32 -37 -39 -65 -37 -150 1 -58 -2 -88 -10 -91 -14 -5
-15 -39 -1 -47 6 -3 10 -24 10 -45 0 -50 10 -77 21 -58 6 9 9 2 9 -19 0 -39
17 -43 30 -9 5 13 14 27 19 31 6 3 11 26 11 51 0 24 6 54 13 65 10 17 10 23 0
26 -9 3 -13 35 -14 106 -1 143 -15 181 -51 140z"/>
<path d="M220 482 c0 -115 3 -141 15 -146 8 -3 15 -12 15 -21 0 -8 7 -15 15
-15 8 0 15 -9 15 -19 0 -13 6 -18 18 -17 14 2 18 15 20 69 l3 66 47 3 47 3 3
43 3 42 -50 0 c-37 0 -51 4 -51 14 0 10 16 15 55 18 l55 3 0 -130 c1 -117 2
-128 15 -110 15 18 17 18 44 2 15 -9 31 -14 35 -10 3 3 6 27 6 52 l0 46 21
-32 c11 -17 31 -38 44 -47 22 -15 25 -14 34 2 7 11 10 13 11 3 0 -9 8 -12 25
-9 17 4 25 1 25 -8 0 -17 12 -18 28 -2 7 7 12 9 12 5 0 -4 9 -3 20 3 16 9 20
8 20 -6 0 -11 5 -14 16 -10 9 3 20 6 25 6 5 0 18 9 29 20 11 11 20 15 20 9 0
-5 5 -7 10 -4 6 3 10 17 10 31 0 22 -4 24 -45 24 -38 0 -45 3 -45 19 0 16 8
20 43 23 42 3 42 3 45 46 l3 42 -45 0 c-39 0 -46 3 -46 19 0 16 8 20 43 23 42
3 42 3 45 46 l3 42 -95 0 -96 0 0 -31 0 -30 -24 28 -24 28 -211 3 -211 3 0
-139z"/>
<path d="M890 445 c0 -160 6 -197 25 -165 4 6 10 8 15 5 5 -3 11 -1 15 5 9 15
25 12 25 -6 0 -20 36 -10 68 19 14 13 22 16 22 8 0 -10 3 -11 14 -2 29 24 12
46 -37 49 -38 3 -47 7 -47 22 0 15 9 19 43 22 42 3 42 3 45 46 l3 42 -45 0
c-39 0 -46 3 -46 19 0 16 8 20 43 23 42 3 42 3 45 46 l3 42 -95 0 -96 0 0
-175z"/>
<path d="M1160 480 c0 -116 3 -142 15 -146 8 -4 15 -12 15 -20 0 -8 5 -14 10
-14 6 0 10 -9 10 -19 0 -25 31 -21 41 5 4 10 8 40 8 66 l1 47 43 3 c42 3 42 3
45 46 l3 42 -45 0 c-34 0 -46 4 -46 14 0 11 14 16 48 18 l47 3 3 48 3 47 -100
0 -101 0 0 -140z"/>
<path d="M1550 445 c0 -167 6 -199 28 -159 8 15 12 15 39 0 17 -8 33 -12 37
-9 3 4 6 27 6 52 l0 46 22 -37 c20 -34 49 -53 73 -48 31 7 51 4 61 -9 10 -13
14 -13 28 -2 9 7 16 10 16 6 0 -4 7 -2 15 5 12 10 15 9 15 -5 0 -14 5 -16 28
-10 15 3 37 16 50 27 13 13 22 16 22 9 0 -7 5 -9 10 -6 6 3 10 17 10 31 0 22
-4 24 -45 24 -38 0 -45 3 -45 19 0 16 8 20 38 23 36 3 37 4 40 46 l3 42 -40 0
c-34 0 -41 3 -41 19 0 16 8 20 43 23 42 3 42 3 45 46 l3 42 -100 0 -101 0 -1
-27 c0 -16 -3 -22 -6 -15 -11 28 -62 42 -158 42 l-95 0 0 -175z"/>
</g>
</svg>
